<svg width="52" height="52" viewBox="0 0 52 52" fill="none" xmlns="http://www.w3.org/2000/svg">
<rect width="52" height="52" rx="10" fill="#C70039"/>
<path d="M25.75 30.5C26.6895 30.5 27.6078 30.2214 28.389 29.6995C29.1701 29.1775 29.7789 28.4357 30.1384 27.5677C30.4979 26.6998 30.592 25.7447 30.4087 24.8233C30.2255 23.9019 29.7731 23.0555 29.1088 22.3912C28.4445 21.7269 27.5981 21.2745 26.6767 21.0913C25.7553 20.908 24.8002 21.0021 23.9323 21.3616C23.0643 21.7211 22.3225 22.3299 21.8005 23.111C21.2786 23.8922 21 24.8105 21 25.75C21 27.0098 21.5004 28.218 22.3912 29.1088C23.282 29.9996 24.4902 30.5 25.75 30.5ZM25.75 22.5C26.3928 22.5 27.0211 22.6906 27.5556 23.0477C28.0901 23.4048 28.5066 23.9124 28.7526 24.5063C28.9986 25.1001 29.063 25.7536 28.9376 26.384C28.8121 27.0145 28.5026 27.5936 28.0481 28.0481C27.5936 28.5026 27.0145 28.8121 26.384 28.9376C25.7536 29.063 25.1001 28.9986 24.5063 28.7526C23.9124 28.5066 23.4048 28.0901 23.0477 27.5556C22.6906 27.0211 22.5 26.3928 22.5 25.75C22.5 24.888 22.8424 24.0614 23.4519 23.4519C24.0614 22.8424 24.888 22.5 25.75 22.5ZM39.75 17H11.75C11.5511 17 11.3603 17.079 11.2197 17.2197C11.079 17.3603 11 17.5511 11 17.75V33.75C11 33.9489 11.079 34.1397 11.2197 34.2803C11.3603 34.421 11.5511 34.5 11.75 34.5H39.75C39.9489 34.5 40.1397 34.421 40.2803 34.2803C40.421 34.1397 40.5 33.9489 40.5 33.75V17.75C40.5 17.5511 40.421 17.3603 40.2803 17.2197C40.1397 17.079 39.9489 17 39.75 17ZM12.5 23.3525C13.6645 23.0427 14.7266 22.4308 15.5787 21.5787C16.4308 20.7266 17.0427 19.6645 17.3525 18.5H34.1475C34.4573 19.6645 35.0692 20.7266 35.9213 21.5787C36.7734 22.4308 37.8355 23.0427 39 23.3525V28.1475C37.8355 28.4573 36.7734 29.0692 35.9213 29.9213C35.0692 30.7734 34.4573 31.8355 34.1475 33H17.3525C17.0427 31.8355 16.4308 30.7734 15.5787 29.9213C14.7266 29.0692 13.6645 28.4573 12.5 28.1475V23.3525ZM39 21.7863C38.2404 21.5209 37.5504 21.0876 36.9814 20.5186C36.4124 19.9496 35.9791 19.2596 35.7138 18.5H39V21.7863ZM15.7863 18.5C15.5209 19.2596 15.0876 19.9496 14.5186 20.5186C13.9496 21.0876 13.2596 21.5209 12.5 21.7863V18.5H15.7863ZM12.5 29.7138C13.2596 29.9791 13.9496 30.4124 14.5186 30.9814C15.0876 31.5504 15.5209 32.2404 15.7863 33H12.5V29.7138ZM35.7138 33C35.9791 32.2404 36.4124 31.5504 36.9814 30.9814C37.5504 30.4124 38.2404 29.9791 39 29.7138V33H35.7138Z" fill="white"/>
</svg>
