<svg width="182" height="182" viewBox="0 0 182 182" fill="none" xmlns="http://www.w3.org/2000/svg">
<circle cx="91" cy="91" r="86" stroke="white" stroke-width="10"/>
<ellipse cx="90.4941" cy="91.0005" rx="81.3944" ry="80.8889" fill="#C70039"/>
<path d="M77.0297 83.4146L99.1854 105.55C97.5328 111.748 98.9581 116.53 102.491 120.058C106.052 123.616 111.113 124.909 115.886 123.603C116.568 123.417 117.1 122.882 117.28 122.198C117.461 121.515 117.263 120.789 116.764 120.29L111.431 114.968C109.872 113.408 109.887 110.909 111.427 109.366C112.975 107.829 115.538 107.854 117.047 109.364L122.384 114.689C122.885 115.189 123.613 115.385 124.297 115.202C124.98 115.02 125.514 114.489 125.701 113.809C126.996 109.087 125.722 104.007 122.149 100.439C118.663 96.9554 113.826 95.4804 107.611 97.1434L85.4577 75.0083L85.751 73.9035C87.0268 69.1256 85.648 63.9892 82.1545 60.5003C78.5968 56.9474 73.5381 55.6429 68.7551 56.9532C68.0734 57.1393 67.5413 57.6742 67.3607 58.3585C67.1801 59.0407 67.3782 59.7676 67.8773 60.2657L73.2118 65.5902C74.7712 67.1505 74.7557 69.6489 73.2157 71.1918C71.6874 72.7211 69.1182 72.7192 67.5957 71.1957L62.2612 65.8693C61.7602 65.3692 61.0319 65.1734 60.3484 65.3556C59.6648 65.5378 59.1308 66.0689 58.9443 66.7493C57.6491 71.4709 58.923 76.5511 62.4981 80.1195C65.9839 83.6007 70.8155 85.0815 77.0316 83.4146H77.0297Z" fill="white"/>
<path d="M79.6721 91.6772L60.744 110.572C57.6465 113.663 57.6465 118.691 60.744 121.783C63.8414 124.874 68.8788 124.874 71.9762 121.783L90.9043 102.888L79.6721 91.6772ZM70.11 115.632C69.3351 116.406 68.0787 116.406 67.3019 115.632C66.5271 114.859 66.5271 113.605 67.3019 112.83L79.3458 100.807C80.1207 100.033 81.3771 100.033 82.1539 100.807C82.9287 101.58 82.9287 102.834 82.1539 103.609L70.11 115.632Z" fill="white"/>
<path d="M101.938 85.8744L115.305 72.5875L116.485 73.766C117.398 74.677 118.928 74.4889 119.593 73.3841L125.91 62.8748C126.378 62.0956 126.255 61.0974 125.611 60.4539L122.187 57.0367C121.542 56.3932 120.542 56.271 119.762 56.7382L109.232 63.0434C108.123 63.7063 107.937 65.2317 108.85 66.1446L109.689 66.98L96.3223 80.267L101.94 85.8744H101.938Z" fill="white"/>
<path d="M32.6407 99.0373C32.8 98.5489 32.8504 97.9829 32.7961 97.3413C32.7398 96.6804 32.5883 96.126 32.3417 95.6783C32.095 95.2306 31.7785 94.8972 31.3901 94.682C31.0017 94.4669 30.5648 94.3797 30.0812 94.4204C29.7239 94.4514 29.4171 94.5444 29.1627 94.7033C28.9083 94.8603 28.6966 95.0619 28.5277 95.3081C28.3587 95.5542 28.2247 95.8256 28.1257 96.126C28.0267 96.4245 27.9548 96.7347 27.9082 97.0525L27.782 97.8434C27.7567 98.0159 27.7218 98.1884 27.6771 98.3609C27.6324 98.5314 27.5722 98.6904 27.4965 98.8358C27.4208 98.9811 27.3237 99.0974 27.2033 99.1885C27.0829 99.2777 26.9372 99.33 26.7663 99.3455C26.5585 99.361 26.3702 99.3165 26.1973 99.2118C26.0245 99.1071 25.8827 98.9482 25.7701 98.733C25.6575 98.5179 25.5876 98.2543 25.5604 97.9441C25.5215 97.5003 25.5895 97.132 25.7623 96.8374C25.9352 96.5428 26.1954 96.3606 26.5449 96.2927L26.4207 94.8545C25.9565 94.903 25.5546 95.0677 25.2167 95.3507C24.8788 95.6337 24.6282 96.0059 24.4632 96.4652C24.2981 96.9246 24.2418 97.446 24.2923 98.0333C24.3428 98.6109 24.4884 99.1188 24.7312 99.5587C24.9739 99.9987 25.2885 100.334 25.6788 100.567C26.0672 100.799 26.5061 100.896 26.9935 100.854C27.5858 100.803 28.0422 100.565 28.3665 100.142C28.6889 99.7177 28.9083 99.1594 29.0248 98.4636L29.186 97.5042C29.2365 97.2018 29.2986 96.9362 29.3744 96.7056C29.4501 96.4749 29.555 96.2927 29.6851 96.1571C29.8152 96.0214 29.988 95.9438 30.2036 95.9225C30.4405 95.9051 30.6541 95.9593 30.8425 96.0834C31.0308 96.2074 31.1843 96.3897 31.3047 96.6261C31.4231 96.8626 31.4969 97.1436 31.526 97.4693C31.5532 97.7813 31.5299 98.0663 31.4581 98.326C31.3862 98.5857 31.26 98.8009 31.0833 98.9734C30.9066 99.1459 30.6735 99.2544 30.3881 99.3009L30.5143 100.772C31.0619 100.704 31.5144 100.52 31.8736 100.224C32.2329 99.927 32.4912 99.5335 32.6504 99.0451L32.6407 99.0373Z" fill="white"/>
<path d="M32.4485 90.3732L30.458 89.5436L30.6833 86.4385L32.7728 85.9016L32.8874 84.3044L24.4011 86.6187L24.2671 88.4659L32.332 91.9703L32.4466 90.3732H32.4485ZM26.0343 87.6325L29.4482 86.7544L29.2812 89.0532L26.0284 87.6964L26.0323 87.6325H26.0343Z" fill="white"/>
<path d="M33.7129 79.951L28.1939 78.4779L28.2133 78.4042L34.3013 77.658L34.579 76.6191L29.6873 72.946L29.7086 72.8704L35.2141 74.3397L35.5869 72.9499L27.5706 70.8101L27.0967 72.5836L32.2681 76.5086L32.2429 76.6036L25.7995 77.4293L25.3237 79.2028L33.3401 81.3407L33.7129 79.951Z" fill="white"/>
<path d="M39.1896 64.8982L38.0477 64.3671L36.3854 67.9161L34.3347 66.9605L35.863 63.6906L34.7212 63.1596L33.1929 66.4275L31.1519 65.4758L32.7986 61.9559L31.6568 61.4229L29.373 66.3034L36.8923 69.8079L39.1896 64.8982Z" fill="white"/>
<path d="M44.1949 57.0986C44.7056 56.4299 45.0105 55.7554 45.1095 55.077C45.2086 54.3986 45.1095 53.7454 44.8085 53.1155C44.5075 52.4855 44.0143 51.9099 43.3268 51.3865C42.6413 50.8651 41.9558 50.5453 41.2703 50.4232C40.5848 50.303 39.9323 50.3767 39.3089 50.648C38.6856 50.9194 38.1263 51.3807 37.6272 52.0358L35.8892 54.3133L42.4898 59.3315L44.1929 57.0986H44.1949ZM37.835 53.9063L38.6098 52.8887C38.9497 52.4429 39.3186 52.1328 39.7148 51.9583C40.111 51.7839 40.5362 51.747 40.9868 51.8459C41.4392 51.9447 41.917 52.187 42.4219 52.5708C42.9268 52.9546 43.288 53.3519 43.5074 53.7609C43.7269 54.1699 43.8026 54.5944 43.7366 55.0286C43.6705 55.4647 43.4628 55.9105 43.1132 56.3698L42.3636 57.3506L37.8311 53.9063H37.835Z" fill="white"/>
<path d="M49.1641 51.2451L48.2552 49.2914L50.5195 47.1496L52.4265 48.1594L53.5917 47.0585L45.7618 43.0559L44.4141 44.3294L48.0008 52.3461L49.166 51.2451H49.1641ZM46.2803 44.9031L49.3952 46.5545L47.7193 48.14L46.2337 44.9496L46.2803 44.905V44.9031Z" fill="white"/>
<path d="M55.959 35.2173L54.5647 36.1864L54.9978 40.3499L54.9317 40.3964L51.1683 38.5492L49.7759 39.5183L55.2269 42.0555L56.996 44.5908L58.2253 43.736L56.4562 41.2008L55.959 35.2173Z" fill="white"/>
<path d="M67.095 38.7336L66.959 36.5841L69.8486 35.4095L71.2565 37.0415L72.7421 36.4368L66.9027 29.8699L65.1841 30.5696L65.6094 39.3384L67.095 38.7336ZM66.7143 31.7791L69.0155 34.4462L66.8775 35.3164L66.6541 31.8043L66.7143 31.781V31.7791Z" fill="white"/>
<path d="M76.8134 35.361L76.1842 32.6338L77.7319 32.2791C78.3553 32.1357 78.8544 31.8992 79.2272 31.5716C79.6001 31.2441 79.8506 30.8545 79.9768 30.4009C80.103 29.9493 80.105 29.4647 79.9865 28.9472C79.868 28.4355 79.6544 28.0013 79.3437 27.6485C79.033 27.2958 78.6407 27.0516 78.165 26.9178C77.6892 26.7841 77.1416 26.788 76.5201 26.9314L73.4868 27.6272L75.3472 35.6982L76.8114 35.361H76.8134ZM76.5765 28.2029C76.9415 28.1195 77.2561 28.1118 77.5164 28.1796C77.7766 28.2475 77.9882 28.3793 78.1514 28.5712C78.3126 28.7631 78.4271 29.0034 78.4931 29.2903C78.5592 29.5771 78.5611 29.8427 78.5009 30.0888C78.4407 30.335 78.3087 30.5482 78.1048 30.7265C77.9028 30.9068 77.6193 31.0367 77.2561 31.12L75.9065 31.4301L75.2326 28.5111L76.5745 28.2029H76.5765Z" fill="white"/>
<path d="M85.5274 33.835L85.3176 31.0439L86.9023 30.9257C87.5412 30.8772 88.0694 30.7202 88.4888 30.4527C88.9083 30.1853 89.2132 29.8364 89.4054 29.408C89.5977 28.9797 89.6734 28.5009 89.6346 27.9717C89.5957 27.4484 89.4481 26.9871 89.1957 26.5917C88.9432 26.1963 88.5917 25.8958 88.1412 25.6904C87.6907 25.4849 87.1489 25.4074 86.5119 25.4559L83.4087 25.6885L84.0282 33.9475L85.5274 33.835ZM86.376 26.7235C86.7508 26.6964 87.0615 26.7351 87.3081 26.8417C87.5567 26.9483 87.7451 27.1092 87.8771 27.3244C88.0092 27.5395 88.0849 27.7934 88.1063 28.0861C88.1276 28.3788 88.0907 28.6424 87.9936 28.8769C87.8965 29.1115 87.7334 29.3014 87.5062 29.4487C87.279 29.596 86.9799 29.6832 86.6071 29.7104L85.2264 29.8131L85.0011 26.8243L86.374 26.7216L86.376 26.7235Z" fill="white"/>
<path d="M97.9997 32.6297L94.3527 32.3855L94.8207 25.3786L93.3215 25.2778L92.7681 33.5407L97.9142 33.8838L97.9997 32.6297Z" fill="white"/>
<path d="M101.536 26.0755L100.176 34.2458L101.659 34.4917L103.019 26.3213L101.536 26.0755Z" fill="white"/>
<path d="M106.658 33.4808L109.656 34.3414L109.751 36.4929L111.293 36.9368L110.777 28.1699L108.994 27.6582L103.893 34.8105L105.434 35.2543L106.66 33.4808H106.658ZM109.382 29.5383L109.445 29.5558L109.6 33.0718L107.38 32.4341L109.382 29.5364V29.5383Z" fill="white"/>
<path d="M117.709 33.543L117.771 33.574L118.831 40.3502L120.035 40.9317L123.646 33.4751L122.3 32.8258L119.839 37.908L119.773 37.877L118.719 31.0969L117.507 30.5134L113.897 37.97L115.251 38.6232L117.709 33.543Z" fill="white"/>
<path d="M125.786 44.8374C126.188 45.1262 126.596 45.3278 127.01 45.4441C127.425 45.5604 127.831 45.6011 128.231 45.5642C128.631 45.5274 129.008 45.4228 129.362 45.2522C129.715 45.0816 130.031 44.8529 130.307 44.566L129.082 43.6764C128.903 43.8469 128.709 43.9729 128.501 44.0563C128.293 44.1396 128.08 44.1823 127.864 44.1861C127.647 44.19 127.431 44.1551 127.216 44.0815C127 44.0078 126.792 43.8993 126.59 43.7539C126.227 43.4922 125.967 43.1724 125.816 42.7906C125.662 42.4107 125.631 41.9862 125.724 41.5191C125.816 41.0519 126.049 40.5615 126.419 40.0479C126.785 39.542 127.173 39.1718 127.587 38.9353C128 38.6989 128.414 38.5903 128.827 38.6116C129.241 38.631 129.631 38.7725 129.998 39.0361C130.204 39.1834 130.377 39.3501 130.515 39.5343C130.653 39.7184 130.754 39.9161 130.814 40.1254C130.876 40.3348 130.898 40.5538 130.878 40.7767C130.859 41.0015 130.795 41.2264 130.686 41.4532L131.915 42.337C132.135 41.9261 132.269 41.5171 132.315 41.1081C132.362 40.6992 132.333 40.3018 132.228 39.918C132.121 39.5343 131.944 39.1737 131.698 38.8384C131.451 38.5012 131.14 38.1988 130.766 37.9294C130.177 37.5068 129.554 37.2665 128.892 37.2064C128.229 37.1463 127.579 37.2762 126.936 37.5979C126.295 37.9197 125.713 38.443 125.19 39.166C124.67 39.889 124.357 40.6042 124.252 41.3117C124.147 42.0211 124.229 42.6782 124.497 43.2848C124.765 43.8915 125.194 44.409 125.786 44.8335V44.8374Z" fill="white"/>
<path d="M134.775 52.6037L135.663 51.7121L132.88 48.9481L134.478 47.3452L137.04 49.8901L137.929 48.9985L135.367 46.4536L136.956 44.8603L139.716 47.601L140.605 46.7094L136.779 42.9104L130.926 48.7815L134.775 52.6037Z" fill="white"/>
<path d="M139.651 58.789L142.187 57.1201L143.028 58.3955L141.389 61.4231L142.311 62.8206L144.067 59.5197C144.116 59.5527 144.164 59.5837 144.213 59.6128C144.63 59.8609 145.065 59.9713 145.514 59.9461C145.964 59.919 146.411 59.7601 146.856 59.4674C147.298 59.1766 147.625 58.8297 147.834 58.4246C148.044 58.0195 148.122 57.5756 148.069 57.093C148.015 56.6104 147.813 56.1025 147.463 55.5714L145.751 52.978L138.822 57.5349L139.649 58.7871L139.651 58.789ZM146.289 56.0696C146.494 56.3816 146.619 56.6685 146.658 56.9263C146.696 57.1841 146.661 57.4186 146.551 57.6318C146.44 57.8431 146.261 58.0311 146.017 58.192C145.77 58.3529 145.531 58.442 145.302 58.4575C145.071 58.473 144.846 58.4091 144.628 58.2676C144.411 58.1261 144.199 57.9013 143.993 57.5892L143.23 56.434L145.531 54.9202L146.289 56.0676V56.0696Z" fill="white"/>
<path d="M145.808 69.9626L146.947 69.4276L145.281 65.8806L147.332 64.9211L148.866 68.1871L150.008 67.6522L148.474 64.3862L150.513 63.4325L152.165 66.9505L153.307 66.4175L151.016 61.5408L143.502 65.0549L145.808 69.9626Z" fill="white"/>
<path d="M147.305 74.1653L149.991 73.359L150.447 74.8767C150.632 75.4892 150.9 75.9699 151.251 76.3207C151.603 76.6715 152.01 76.8944 152.471 76.9894C152.931 77.0844 153.416 77.0572 153.925 76.9041C154.43 76.7529 154.848 76.5106 155.182 76.1792C155.514 75.8477 155.733 75.4407 155.836 74.9561C155.939 74.4735 155.898 73.9269 155.716 73.3183L154.82 70.345L146.874 72.7291L147.307 74.1653H147.305ZM154.446 73.4598C154.554 73.8184 154.582 74.1304 154.531 74.396C154.479 74.6596 154.362 74.8805 154.182 75.0531C153.999 75.2275 153.768 75.3574 153.486 75.4407C153.205 75.526 152.939 75.5454 152.688 75.5008C152.438 75.4562 152.216 75.3399 152.024 75.15C151.832 74.96 151.682 74.6867 151.574 74.3301L151.175 73.0062L154.051 72.1437L154.448 73.4598H154.446Z" fill="white"/>
<path d="M149.175 81.3099L151.301 81.682L151.767 84.76L149.847 85.7427L150.086 87.3263L157.853 83.2016L157.576 81.37L148.934 79.7244L149.173 81.3079L149.175 81.3099ZM156.036 82.5736L152.898 84.1805L152.552 81.9011L156.024 82.5097L156.034 82.5736H156.036Z" fill="white"/>
<path d="M158.408 89.3264L150.115 89.5967L150.164 91.0961L158.457 90.8258L158.408 89.3264Z" fill="white"/>
<path d="M150.218 93.8098L150.106 95.3061L153.135 95.5349L153.021 97.0564L149.867 98.45L149.741 100.119L153.159 98.576C153.176 98.6303 153.19 98.6884 153.211 98.7408C153.39 99.1924 153.665 99.5452 154.036 99.7991C154.409 100.053 154.86 100.2 155.39 100.239C155.918 100.28 156.388 100.202 156.804 100.01C157.219 99.8185 157.551 99.5161 157.806 99.1013C158.058 98.6865 158.21 98.1612 158.258 97.5274L158.493 94.43L150.218 93.8059V93.8098ZM157.023 97.2057C156.996 97.5797 156.918 97.8802 156.79 98.1089C156.662 98.3376 156.491 98.5004 156.273 98.6012C156.056 98.702 155.8 98.7408 155.506 98.7175C155.213 98.6943 154.97 98.6187 154.778 98.4907C154.586 98.3609 154.448 98.1748 154.363 97.9306C154.277 97.6863 154.248 97.3782 154.275 97.0079L154.38 95.6298L157.128 95.8372L157.023 97.2076V97.2057Z" fill="white"/>
<path d="M38.7443 112.049L36.7713 110.597L35.4857 111.087L37.3344 112.456L37.3519 112.502L30.9668 114.933L31.5028 116.336L39.255 113.382L38.7443 112.049Z" fill="white"/>
<path d="M42.1133 123.028C42.5405 122.491 42.7813 121.933 42.8357 121.353C42.89 120.773 42.7522 120.194 42.424 119.618C42.0938 119.043 41.6666 118.63 41.1403 118.382C40.6141 118.134 40.0101 118.058 39.3304 118.151C38.6508 118.244 37.9187 118.513 37.1322 118.959C36.3457 119.407 35.7378 119.899 35.3067 120.438C34.8756 120.977 34.6309 121.537 34.5727 122.117C34.5144 122.698 34.6504 123.278 34.9805 123.855C35.3106 124.433 35.7417 124.846 36.2699 125.092C36.7981 125.338 37.406 125.414 38.0895 125.317C38.7731 125.222 39.5091 124.949 40.2975 124.501C41.0801 124.055 41.686 123.563 42.1133 123.028ZM41.4802 121.179C41.4064 121.51 41.2083 121.845 40.8879 122.186C40.5675 122.528 40.1189 122.861 39.5479 123.187C38.6818 123.679 37.9517 123.921 37.3594 123.913C36.7671 123.906 36.3398 123.677 36.0835 123.227C35.9126 122.927 35.8641 122.613 35.9379 122.281C36.0117 121.95 36.2097 121.615 36.534 121.274C36.8583 120.932 37.3089 120.599 37.8837 120.275C38.744 119.789 39.4703 119.548 40.0626 119.556C40.6549 119.564 41.0801 119.791 41.3365 120.237C41.5074 120.535 41.554 120.847 41.4802 121.179Z" fill="white"/>
<path d="M48.4558 129.129C48.415 128.547 48.1858 127.999 47.7683 127.483C47.3508 126.968 46.8614 126.63 46.3002 126.471C45.7409 126.312 45.1331 126.334 44.4767 126.535C43.8223 126.737 43.1426 127.121 42.4377 127.687C41.7347 128.255 41.2143 128.84 40.8764 129.441C40.5385 130.042 40.387 130.633 40.4239 131.216C40.4608 131.8 40.688 132.348 41.1094 132.866C41.5308 133.383 42.0202 133.72 42.5833 133.879C43.1465 134.036 43.7563 134.013 44.4165 133.808C45.0748 133.602 45.7584 133.215 46.4633 132.645C47.1644 132.079 47.6829 131.495 48.0169 130.896C48.3509 130.297 48.4985 129.708 48.4577 129.127L48.4558 129.129ZM46.6672 130.266C46.4051 130.654 46.0186 131.055 45.506 131.47C44.7311 132.096 44.0495 132.453 43.463 132.54C42.8766 132.627 42.4183 132.47 42.092 132.069C41.8745 131.802 41.7755 131.497 41.7949 131.16C41.8143 130.823 41.9561 130.458 42.2202 130.069C42.4843 129.679 42.8746 129.278 43.3912 128.865C44.1602 128.247 44.8399 127.892 45.4263 127.803C46.0128 127.714 46.4692 127.869 46.7935 128.27C47.009 128.536 47.1081 128.838 47.0886 129.177C47.0692 129.516 46.9294 129.879 46.6672 130.266Z" fill="white"/>
<path d="M52.1303 133.506C51.8507 133.626 51.608 133.808 51.4021 134.058L51.1225 134.393C50.9166 134.64 50.7788 134.909 50.7108 135.204C50.6409 135.496 50.6564 135.789 50.7516 136.08C50.8487 136.37 51.0429 136.638 51.3361 136.88C51.6254 137.121 51.9206 137.26 52.2255 137.305C52.5304 137.349 52.8197 137.309 53.0955 137.188C53.3713 137.068 53.6121 136.882 53.8179 136.634L54.0975 136.299C54.3053 136.051 54.4432 135.779 54.5151 135.488C54.5869 135.198 54.5733 134.905 54.4782 134.612C54.383 134.322 54.1888 134.054 53.8956 133.81C53.6101 133.572 53.313 133.432 53.0081 133.389C52.7013 133.347 52.41 133.385 52.1303 133.506ZM53.3052 134.517C53.5111 134.688 53.5926 134.872 53.5499 135.07C53.5072 135.268 53.4179 135.45 53.28 135.616L53.0003 135.952C52.8625 136.116 52.6993 136.237 52.509 136.31C52.3207 136.384 52.1265 136.337 51.9264 136.171C51.7264 136.006 51.6449 135.822 51.6798 135.622C51.7148 135.423 51.8022 135.238 51.94 135.074L52.2197 134.738C52.3556 134.576 52.5226 134.455 52.7168 134.384C52.911 134.31 53.1071 134.355 53.3052 134.519V134.517Z" fill="white"/>
<path d="M54.097 140.142C53.8115 139.904 53.5144 139.764 53.2076 139.724C52.9008 139.683 52.6095 139.724 52.3318 139.842C52.0541 139.962 51.8133 140.146 51.6074 140.392L51.3278 140.728C51.1219 140.974 50.9841 141.243 50.9142 141.536C50.8442 141.829 50.8578 142.121 50.953 142.416C51.0482 142.709 51.2423 142.976 51.5336 143.218C51.8249 143.461 52.122 143.6 52.4289 143.641C52.7338 143.682 53.0251 143.641 53.3028 143.519C53.5805 143.397 53.8213 143.214 54.0252 142.968L54.3048 142.633C54.5126 142.385 54.6505 142.113 54.7204 141.821C54.7903 141.528 54.7786 141.237 54.6835 140.945C54.5883 140.654 54.3941 140.386 54.0989 140.14L54.097 140.142ZM53.7533 141.406C53.7106 141.604 53.6212 141.786 53.4834 141.953L53.2037 142.288C53.0658 142.455 52.9027 142.573 52.7124 142.647C52.524 142.72 52.3279 142.672 52.1279 142.505C51.9279 142.34 51.8463 142.156 51.8812 141.953C51.9162 141.749 52.0016 141.567 52.1395 141.404L52.4192 141.069C52.557 140.902 52.7241 140.786 52.9202 140.714C53.1163 140.642 53.3105 140.689 53.5067 140.852C53.7144 141.024 53.7979 141.21 53.7552 141.408L53.7533 141.406Z" fill="white"/>
<path d="M47.4438 139.524L48.2226 140.171L57.9148 137.448L57.1361 136.801L47.4438 139.524Z" fill="white"/>
<path d="M70.1566 144.936C69.976 144.585 69.7313 144.267 69.4245 143.982C69.1176 143.697 68.7545 143.461 68.337 143.273C67.8418 143.05 67.3446 142.932 66.8436 142.918C66.3426 142.905 65.861 142.996 65.3969 143.19C64.9327 143.384 64.5055 143.682 64.1152 144.083C63.7249 144.484 63.3928 144.99 63.117 145.599C62.7578 146.396 62.5927 147.15 62.6257 147.859C62.6587 148.568 62.8665 149.2 63.251 149.751C63.6355 150.301 64.1754 150.733 64.8725 151.046C65.4979 151.327 66.1096 151.449 66.7077 151.412C67.3058 151.375 67.8476 151.183 68.337 150.834C68.8263 150.487 69.2167 149.989 69.508 149.344L69.9177 148.437L66.8494 147.055L66.3659 148.123L68.1059 148.906C67.9428 149.249 67.7311 149.518 67.4689 149.712C67.1932 149.915 66.8805 150.026 66.5329 150.047C66.1853 150.069 65.8183 149.991 65.4338 149.819C65.0104 149.629 64.6842 149.357 64.457 149.008C64.2298 148.659 64.1152 148.247 64.1152 147.77C64.1152 147.293 64.2434 146.77 64.4997 146.2C64.756 145.634 65.0629 145.196 65.4221 144.884C65.7814 144.57 66.1659 144.384 66.5756 144.324C66.9854 144.263 67.3932 144.324 67.7991 144.506C68.0263 144.608 68.2224 144.731 68.3875 144.874C68.5525 145.019 68.6846 145.18 68.7836 145.361C68.8807 145.541 68.9487 145.735 68.9836 145.94C69.0186 146.147 69.0225 146.363 68.9953 146.589L70.3916 147.217C70.5022 146.822 70.5372 146.429 70.4925 146.039C70.4498 145.649 70.3372 145.279 70.1566 144.928V144.936Z" fill="white"/>
<path d="M78.954 152.369C78.8743 152.704 78.7287 152.985 78.519 153.214C78.3092 153.443 78.051 153.596 77.7441 153.681C77.4373 153.765 77.0975 153.763 76.7266 153.674C76.3556 153.584 76.0527 153.435 75.8177 153.222C75.5827 153.009 75.4216 152.755 75.3361 152.456C75.2507 152.158 75.2468 151.842 75.3283 151.507L76.5537 146.366L75.0914 146.019L73.835 151.282C73.6971 151.859 73.7126 152.398 73.8777 152.9C74.0447 153.402 74.3438 153.834 74.7768 154.197C75.2099 154.559 75.7556 154.819 76.4158 154.974C77.0722 155.131 77.6762 155.145 78.2257 155.015C78.7753 154.885 79.2394 154.635 79.6142 154.263C79.991 153.891 80.2473 153.414 80.3852 152.838L81.6416 147.576L80.1793 147.229L78.952 152.371L78.954 152.369Z" fill="white"/>
<path d="M87.8642 148.227L84.5532 156.36L86.1553 156.435L86.9379 154.427L90.0528 154.575L90.6432 156.647L92.2453 156.722L89.7169 148.312L87.8642 148.225V148.227ZM87.4001 153.245L88.6779 149.965L88.742 149.969L89.7052 153.354L87.3982 153.245H87.4001Z" fill="white"/>
<path d="M101.166 152.515C101.572 152.247 101.861 151.908 102.034 151.491C102.207 151.076 102.259 150.605 102.189 150.078C102.119 149.555 101.95 149.109 101.676 148.745C101.405 148.38 101.038 148.115 100.579 147.952C100.121 147.789 99.5753 147.748 98.9442 147.832L95.8604 148.235L96.9381 156.445L98.4276 156.25L98.0334 153.243L99.55 153.046L101.562 155.841L103.224 155.623L101.014 152.6C101.065 152.571 101.119 152.546 101.166 152.515ZM97.5129 149.283L98.8781 149.105C99.251 149.057 99.5617 149.07 99.8103 149.148C100.061 149.225 100.257 149.359 100.399 149.553C100.54 149.745 100.632 149.987 100.671 150.278C100.709 150.568 100.684 150.822 100.597 151.036C100.509 151.249 100.354 151.423 100.133 151.557C99.9113 151.691 99.6141 151.782 99.2452 151.83L97.8722 152.011L97.5149 149.283H97.5129Z" fill="white"/>
<path d="M107.478 145.977L107.218 154.753L108.746 154.267L108.777 152.138L111.764 151.187L113.024 152.902L114.553 152.416L109.243 145.415L107.476 145.979L107.478 145.977ZM108.746 150.867L108.799 147.322L108.861 147.302L110.962 150.161L108.746 150.867Z" fill="white"/>
<path d="M119.933 140.588L122.663 145.533L122.599 145.567L116.449 142.505L115.271 143.154L119.277 150.405L120.593 149.682L117.865 144.742L117.925 144.709L124.077 147.765L125.248 147.12L121.242 139.869L119.933 140.588Z" fill="white"/>
<path d="M129.974 134.905L129.188 133.923L124.018 138.049L124.805 139.032L126.807 137.433L131.201 142.918L132.365 141.99L127.972 136.504L129.974 134.905Z" fill="white"/>
<path d="M137.753 135.239L136.069 133.727L138.483 131.044L137.547 130.203L135.131 132.887L133.455 131.383L136.057 128.493L135.121 127.654L131.513 131.66L137.687 137.194L141.314 133.165L140.376 132.323L137.753 135.239Z" fill="white"/>
<path d="M143.918 127.491L142.017 126.262L143.98 123.234L142.922 122.55L140.958 125.58L139.069 124.357L141.184 121.094L140.125 120.412L137.193 124.934L144.159 129.433L147.108 124.884L146.05 124.201L143.918 127.491Z" fill="white"/>
<path d="M150.206 113.927C149.761 113.39 149.14 112.952 148.345 112.613C147.553 112.275 146.809 112.132 146.116 112.182C145.423 112.233 144.807 112.465 144.269 112.88C143.731 113.295 143.302 113.88 142.98 114.636L141.854 117.268L149.485 120.519L150.588 117.937C150.919 117.164 151.051 116.435 150.981 115.755C150.911 115.072 150.652 114.464 150.208 113.927H150.206ZM149.363 117.495L148.878 118.629L143.638 116.398L144.141 115.224C144.363 114.708 144.642 114.316 144.984 114.051C145.326 113.785 145.728 113.644 146.19 113.63C146.652 113.617 147.176 113.733 147.759 113.981C148.343 114.229 148.79 114.526 149.103 114.871C149.415 115.216 149.594 115.605 149.637 116.043C149.68 116.482 149.588 116.964 149.361 117.495H149.363Z" fill="white"/>
</svg>
