<svg width="27" height="26" viewBox="0 0 27 26" fill="none" xmlns="http://www.w3.org/2000/svg">
<path d="M26.2202 5.62507C26.1596 5.47514 26.0635 5.34217 25.9401 5.23754C25.8168 5.13292 25.6699 5.05977 25.5121 5.02438C25.3543 4.98898 25.1902 4.99239 25.034 5.03431C24.8778 5.07623 24.7341 5.15541 24.6152 5.26507L19.5777 9.91382L17.424 9.45132L16.9615 7.29757L21.6102 2.26007C21.7199 2.14119 21.7991 1.99748 21.841 1.84127C21.8829 1.68507 21.8863 1.52102 21.8509 1.36321C21.8155 1.2054 21.7424 1.05852 21.6378 0.935187C21.5331 0.81185 21.4002 0.71573 21.2502 0.65507C19.8839 0.102362 18.4027 -0.106326 16.9369 0.0473435C15.471 0.201013 14.0654 0.712335 12.8434 1.53638C11.6213 2.36043 10.6204 3.47199 9.92854 4.77338C9.23664 6.07478 8.87495 7.52618 8.87524 9.00007C8.87362 10.2447 9.12895 11.4762 9.62524 12.6176L2.09899 19.1251C2.08024 19.1401 2.06274 19.1576 2.04524 19.1738C1.29501 19.9241 0.873535 20.9416 0.873535 22.0026C0.873535 22.5279 0.97701 23.0481 1.17805 23.5335C1.37909 24.0188 1.67377 24.4598 2.04524 24.8313C2.41672 25.2028 2.85773 25.4975 3.34308 25.6985C3.82844 25.8996 4.34864 26.003 4.87399 26.003C5.93498 26.003 6.95251 25.5816 7.70274 24.8313C7.71899 24.8151 7.73649 24.7963 7.75149 24.7788L14.2577 17.2501C15.6283 17.8517 17.1272 18.102 18.6189 17.9783C20.1105 17.8547 21.5478 17.3609 22.8005 16.5418C24.0533 15.7227 25.082 14.6041 25.7934 13.2872C26.5049 11.9704 26.8767 10.4968 26.8752 9.00007C26.8772 7.8433 26.6547 6.69713 26.2202 5.62507ZM17.8752 16.0001C16.6916 15.9984 15.5276 15.6974 14.4915 15.1251C14.2908 15.0142 14.058 14.9756 13.8323 15.0159C13.6065 15.0562 13.4015 15.1729 13.2515 15.3463L6.26399 23.4388C5.88587 23.7981 5.38237 23.9954 4.86084 23.9887C4.33932 23.982 3.84104 23.7719 3.47224 23.4031C3.10343 23.0343 2.89329 22.536 2.88661 22.0145C2.87994 21.4929 3.07725 20.9894 3.43649 20.6113L11.5227 13.6251C11.6965 13.475 11.8133 13.2697 11.8536 13.0437C11.8939 12.8177 11.8552 12.5847 11.744 12.3838C11.1065 11.2309 10.8074 9.92143 10.8809 8.60605C10.9544 7.29066 11.3977 6.02272 12.1597 4.94801C12.9217 3.8733 13.9715 3.03544 15.1884 2.53076C16.4054 2.02607 17.7401 1.87506 19.039 2.09507L15.139 6.32132C15.0305 6.43904 14.9518 6.58109 14.9096 6.73553C14.8674 6.88997 14.8629 7.05228 14.8965 7.20882L15.604 10.5001C15.6445 10.6883 15.7384 10.8609 15.8746 10.997C16.0107 11.1332 16.1833 11.2271 16.3715 11.2676L19.6652 11.9751C19.8218 12.0086 19.9841 12.0041 20.1385 11.9619C20.293 11.9197 20.435 11.8411 20.5527 11.7326L24.779 7.83257C24.9475 8.83633 24.8953 9.86474 24.626 10.8463C24.3568 11.8278 23.877 12.7389 23.2199 13.5163C22.5629 14.2936 21.7444 14.9184 20.8214 15.3474C19.8984 15.7763 18.893 15.999 17.8752 16.0001Z" fill="white"/>
</svg>
